<svg xmlns="http://www.w3.org/2000/svg" xmlns:svg="http://www.w3.org/2000/svg" xmlns:xlink="http://www.w3.org/1999/xlink" id="svg4434" width="128" height="128" version="1.1"><defs id="defs4436"><linearGradient id="linearGradient4136" x1="24" x2="24" y1="5.591" y2="42.262" gradientTransform="matrix(2.7297298,0,0,2.7297298,-1.5135184,-62.511679)" gradientUnits="userSpaceOnUse" xlink:href="#linearGradient3924"/><linearGradient id="linearGradient3924"><stop style="stop-color:#fff;stop-opacity:1" id="stop3926" offset="0"/><stop style="stop-color:#fff;stop-opacity:.23529412" id="stop3928" offset=".038"/><stop style="stop-color:#fff;stop-opacity:.15686275" id="stop3930" offset=".967"/><stop style="stop-color:#fff;stop-opacity:.39215687" id="stop3932" offset="1"/></linearGradient><linearGradient id="linearGradient4632-92-3-0-8-1-9"><stop style="stop-color:#fafafa;stop-opacity:1" id="stop4634-68-8-0-2-9-4" offset="0"/><stop style="stop-color:#e1e1e1;stop-opacity:1" id="stop4636-8-21-7-1-4-8" offset="1"/></linearGradient><radialGradient id="radialGradient4093" cx="4.993" cy="43.5" r="2.5" fx="4.993" fy="43.5" gradientTransform="matrix(2.003784,0,0,1.4,27.98813,-17.4)" gradientUnits="userSpaceOnUse" xlink:href="#linearGradient3688-166-749-5"/><linearGradient id="linearGradient3688-166-749-5"><stop style="stop-color:#181818;stop-opacity:1" id="stop2883-0" offset="0"/><stop style="stop-color:#181818;stop-opacity:0" id="stop2885-5" offset="1"/></linearGradient><radialGradient id="radialGradient4095" cx="4.993" cy="43.5" r="2.5" fx="4.993" fy="43.5" gradientTransform="matrix(2.003784,0,0,1.4,-20.01187,-104.4)" gradientUnits="userSpaceOnUse" xlink:href="#linearGradient3688-464-309-8"/><linearGradient id="linearGradient3688-464-309-8"><stop style="stop-color:#181818;stop-opacity:1" id="stop2889-9" offset="0"/><stop style="stop-color:#181818;stop-opacity:0" id="stop2891-4" offset="1"/></linearGradient><linearGradient id="linearGradient4097" x1="25.058" x2="25.058" y1="47.028" y2="39.999" gradientUnits="userSpaceOnUse" xlink:href="#linearGradient3702-501-757-0"/><linearGradient id="linearGradient3702-501-757-0"><stop style="stop-color:#181818;stop-opacity:0" id="stop2895-0" offset="0"/><stop style="stop-color:#181818;stop-opacity:1" id="stop2897-2" offset=".5"/><stop style="stop-color:#181818;stop-opacity:0" id="stop2899-6" offset="1"/></linearGradient><linearGradient id="linearGradient3811"><stop style="stop-color:#000;stop-opacity:1" id="stop3813" offset="0"/><stop style="stop-color:#000;stop-opacity:0" id="stop3815" offset="1"/></linearGradient><radialGradient id="radialGradient4432" cx="-4.029" cy="93.468" r="35.338" fx="-4.029" fy="93.468" gradientTransform="matrix(1.5563924,0,0,0.16978827,70.270355,38.132101)" gradientUnits="userSpaceOnUse" xlink:href="#linearGradient3811"/><radialGradient id="radialGradient3044" cx="32" cy="4.342" r="27.5" fx="32" fy="4.342" gradientTransform="matrix(1.8994991e-8,4.3639682,-4.363968,1.8994991e-8,82.947989,-187.94014)" gradientUnits="userSpaceOnUse" xlink:href="#linearGradient4632-92-3-0-8-1-9"/></defs><metadata id="metadata4439"/><g id="layer1" transform="translate(0,64)"><path style="opacity:.2;color:#000;fill:url(#radialGradient4432);fill-opacity:1;fill-rule:nonzero;stroke:none;stroke-width:1;marker:none;visibility:visible;display:inline;overflow:visible;enable-background:accumulate" id="path3041" d="m 119,54.00181 a 55,6 0 0 1 -109.9999982,0 55,6 0 1 1 109.9999982,0 z"/><g style="display:inline" id="g2036" transform="matrix(2.6999989,0,0,0.55555607,-0.80000812,30.890691)"><g style="opacity:.4" id="g3712" transform="matrix(1.052632,0,0,1.285713,-1.263158,-13.42854)"><rect style="fill:url(#radialGradient4093);fill-opacity:1;stroke:none" id="rect2801" width="5" height="7" x="38" y="40"/><rect style="fill:url(#radialGradient4095);fill-opacity:1;stroke:none" id="rect3696" width="5" height="7" x="-10" y="-47" transform="scale(-1,-1)"/><rect style="fill:url(#linearGradient4097);fill-opacity:1;stroke:none" id="rect3700" width="28" height="7" x="10" y="40"/></g></g><rect style="color:#000;fill:url(#radialGradient3044);fill-opacity:1;fill-rule:nonzero;stroke:none;stroke-width:.99999994;marker:none;visibility:visible;display:inline;overflow:visible;enable-background:accumulate" id="rect5505-21-3" width="102" height="102" x="13" y="-48" rx="4.5" ry="4.5"/><rect style="fill:none;stroke:url(#linearGradient4136);stroke-width:.99999994000000003;stroke-linecap:round;stroke-linejoin:round;stroke-miterlimit:4;stroke-opacity:1;stroke-dasharray:none;stroke-dashoffset:0" id="rect6741-7" width="101" height="101" x="13.5" y="-47.498" rx="4" ry="4"/><rect style="opacity:.25;color:#000;fill:none;stroke:#000;stroke-width:.99999982;stroke-linecap:butt;stroke-linejoin:miter;stroke-miterlimit:4;stroke-opacity:1;stroke-dasharray:none;stroke-dashoffset:0;marker:none;visibility:visible;display:inline;overflow:visible;enable-background:accumulate" id="rect5505-21-3-1" width="103" height="103" x="12.5" y="-48.498" rx="5" ry="5"/><path id="path14" d="m 61.063039,-8.001314 v 10 c 0,1.1 0.895,2 2,2 1.105,0 2,-0.9 2,-2 v -10 h -4 z" style="opacity:.5;fill:#000;fill-opacity:1"/><path id="path16" d="m 63.063039,-8.001314 v 1 h 1 v -1 h -1 z m 0,1 h -1 v 1 h 1 v -1 z m 0,1 v 1 h 1 v -1 h -1 z m 0,1 h -1 v 1 h 1 v -1 z m 0,1 v 1 h 1 v -1 h -1 z m 0,1 h -1 v 1 h 1 v -1 z m 0,1 v 1 h 1 v -1 h -1 z m 0,1 h -1 v 1 h 1 v -1 z m 0,1 v 1 h 1 v -1 h -1 z m 0,1 h -1 v 1 h 1 v -1 z m 0,1 v 1 c 0.552,0 1,-0.5 1,-1 h -1 z" style="fill:#999"/><path id="path8678" d="m 61.0625,-48.5 c 0,13.5 0,27 0,40.5 1.333333,0 2.666667,0 4,0 0,-13.5 0,-27 0,-40.5 -1.333333,0 -2.666667,0 -4,0 z" style="opacity:.5;fill:#000;fill-opacity:1"/><path style="fill:#999" id="path8680" d="m 63.063039,-16.001314 0,1 1,0 0,-1 z m 0,1 -1,0 0,1 1,0 z m 0,1 0,1 1,0 0,-1 z m 0,1 -1,0 0,1 1,0 z m 0,1 0,1 1,0 0,-1 z m 0,1 -1,0 0,1 1,0 z m 0,1 0,1 1,0 0,-1 z m 0,1 -1,0 0,1 1,0 z"/><path style="fill:#ecf0f1;fill-opacity:1" id="path8682" d="m 62.063039,-7.001314 0,-1 1,0 0,1 z m 0,-2 0,-1 1,0 0,1 z m 0,-2 0,-1 1,0 0,1 z m 0,-2 0,-1 1,0 0,1 z m 0,-2 0,-1 1,0 0,1 z"/><path id="path18" d="m 62.063039,-8.001314 v 1 h 1 v -1 h -1 z m 0,2 v 1 h 1 v -1 h -1 z m 0,2 v 1 h 1 v -1 h -1 z m 0,2 v 1 h 1 v -1 h -1 z m 0,2 v 1 h 1 v -1 h -1 z m 0,2 c 0,0.5 0.448,1 1,1 v -1 h -1 z" style="fill:#ecf0f1"/><g id="g3397" transform="matrix(1.3333333,0,0,1.3333333,-21.021013,-2.1662287)"><path id="path8689" d="m 63.063039,1.498686 c -1.376493,0 -2.5,1.128788 -2.5,2.5 l 0,4 c 0,1.371212 1.123507,2.5 2.5,2.5 1.376493,0 2.5,-1.128788 2.5,-2.5 l 0,-4 c 0,-1.371212 -1.123507,-2.5 -2.5,-2.5 z m 0,1.5 c 0.552,0 1,0.4 1,1 0,0.5 -0.448,1 -1,1 -0.552,0 -1,-0.5 -1,-1 0,-0.6 0.448,-1 1,-1 z m 0,3 c 0.552,0 1,0.4 1,1 l 0,1 c 0,0.5 -0.448,1 -1,1 -0.552,0 -1,-0.5 -1,-1 l 0,-1 c 0,-0.6 0.448,-1 1,-1 z" style="opacity:.2;fill:#000;fill-opacity:1;stroke:#000;stroke-width:.75;stroke-opacity:1"/><path style="fill:#ecf0f1;stroke:#000;stroke-width:.75;stroke-opacity:.46296297" id="path22" d="m 63.063039,0.498686 c -1.376493,0 -2.5,1.128788 -2.5,2.5 l 0,4 c 0,1.371212 1.123507,2.5 2.5,2.5 1.376493,0 2.5,-1.128788 2.5,-2.5 l 0,-4 c 0,-1.371212 -1.123507,-2.5 -2.5,-2.5 z m 0,1.5 c 0.552,0 1,0.4 1,1 0,0.5 -0.448,1 -1,1 -0.552,0 -1,-0.5 -1,-1 0,-0.6 0.448,-1 1,-1 z m 0,3 c 0.552,0 1,0.4 1,1 l 0,1 c 0,0.5 -0.448,1 -1,1 -0.552,0 -1,-0.5 -1,-1 l 0,-1 c 0,-0.6 0.448,-1 1,-1 z"/></g><path id="path3272" d="m 63.063039,-24.001314 0,1 1,0 0,-1 z m 0,1 -1,0 0,1 1,0 z m 0,1 0,1 1,0 0,-1 z m 0,1 -1,0 0,1 1,0 z m 0,1 0,1 1,0 0,-1 z m 0,1 -1,0 0,1 1,0 z m 0,1 0,1 1,0 0,-1 z m 0,1 -1,0 0,1 1,0 z" style="fill:#999"/><path id="path3274" d="m 62.063039,-15.001314 0,-1 1,0 0,1 z m 0,-2 0,-1 1,0 0,1 z m 0,-2 0,-1 1,0 0,1 z m 0,-2 0,-1 1,0 0,1 z m 0,-2 0,-1 1,0 0,1 z" style="fill:#ecf0f1;fill-opacity:1"/><path id="path3349" d="m 63.063039,-32.001314 0,1 1,0 0,-1 z m 0,1 -1,0 0,1 1,0 z m 0,1 0,1 1,0 0,-1 z m 0,1 -1,0 0,1 1,0 z m 0,1 0,1 1,0 0,-1 z m 0,1 -1,0 0,1 1,0 z m 0,1 0,1 1,0 0,-1 z m 0,1 -1,0 0,1 1,0 z" style="fill:#999"/><path id="path3351" d="m 62.063039,-23.001314 0,-1 1,0 0,1 z m 0,-2 0,-1 1,0 0,1 z m 0,-2 0,-1 1,0 0,1 z m 0,-2 0,-1 1,0 0,1 z m 0,-2 0,-1 1,0 0,1 z" style="fill:#ecf0f1;fill-opacity:1"/><path style="fill:#999" id="path3353" d="m 63.063039,-40.001314 0,1 1,0 0,-1 z m 0,1 -1,0 0,1 1,0 z m 0,1 0,1 1,0 0,-1 z m 0,1 -1,0 0,1 1,0 z m 0,1 0,1 1,0 0,-1 z m 0,1 -1,0 0,1 1,0 z m 0,1 0,1 1,0 0,-1 z m 0,1 -1,0 0,1 1,0 z"/><path style="fill:#ecf0f1;fill-opacity:1" id="path3355" d="m 62.063039,-31.001314 0,-1 1,0 0,1 z m 0,-2 0,-1 1,0 0,1 z m 0,-2 0,-1 1,0 0,1 z m 0,-2 0,-1 1,0 0,1 z m 0,-2 0,-1 1,0 0,1 z"/><path id="path3358" d="m 63.063039,-48.001314 0,1 1,0 0,-1 z m 0,1 -1,0 0,1 1,0 z m 0,1 0,1 1,0 0,-1 z m 0,1 -1,0 0,1 1,0 z m 0,1 0,1 1,0 0,-1 z m 0,1 -1,0 0,1 1,0 z m 0,1 0,1 1,0 0,-1 z m 0,1 -1,0 0,1 1,0 z" style="fill:#999"/><path id="path3360" d="m 62.063039,-39.001314 0,-1 1,0 0,1 z m 0,-2 0,-1 1,0 0,1 z m 0,-2 0,-1 1,0 0,1 z m 0,-2 0,-1 1,0 0,1 z m 0,-2 0,-1 1,0 0,1 z" style="fill:#ecf0f1;fill-opacity:1"/></g></svg>