<svg xmlns="http://www.w3.org/2000/svg" xmlns:svg="http://www.w3.org/2000/svg" xmlns:xlink="http://www.w3.org/1999/xlink" id="svg7357" width="16" height="16" version="1.1"><defs id="defs7359"><linearGradient id="linearGradient4224" x1="24" x2="24" y1="5" y2="43" gradientTransform="matrix(0.2972973,0,0,0.2972973,0.86486973,0.86486734)" gradientUnits="userSpaceOnUse" xlink:href="#linearGradient3924-4-8"/><linearGradient id="linearGradient3924-4-8"><stop id="stop3926-0-4" offset="0" style="stop-color:#fff;stop-opacity:1"/><stop id="stop3928-6-8" offset=".063" style="stop-color:#fff;stop-opacity:.23529412"/><stop id="stop3930-2-1" offset=".951" style="stop-color:#fff;stop-opacity:.15686275"/><stop id="stop3932-9-0" offset="1" style="stop-color:#fff;stop-opacity:.39215687"/></linearGradient><linearGradient id="linearGradient5882-7" x1="223.217" x2="223.217" y1="38.035" y2="47.987" gradientTransform="translate(-215,-35.000003)" gradientUnits="userSpaceOnUse" xlink:href="#linearGradient5803-0"/><linearGradient id="linearGradient5803-0"><stop id="stop5805-3" offset="0" style="stop-color:#fff5ef;stop-opacity:1"/><stop id="stop5807-4" offset="1" style="stop-color:#fef8dd;stop-opacity:1"/></linearGradient><linearGradient id="linearGradient2867-449-88-871-390-598-476-591-434-148-57-177-8-3-3-6-4-8-8-8"><stop id="stop3750-1-0-7-6-6-1-3-9" offset="0" style="stop-color:#ffcd7d;stop-opacity:1"/><stop id="stop3752-3-7-4-0-32-8-923-0" offset=".262" style="stop-color:#fc8f36;stop-opacity:1"/><stop id="stop3754-1-8-5-2-7-6-7-1" offset=".705" style="stop-color:#e23a0e;stop-opacity:1"/><stop id="stop3756-1-6-2-6-6-1-96-6" offset="1" style="stop-color:#ac441f;stop-opacity:1"/></linearGradient><radialGradient id="radialGradient7347" cx="6.73" cy="9.957" r="12.672" fx="6.2" fy="9.957" gradientTransform="matrix(0,3.1658508,-3.8866533,0,46.97684,-26.720326)" gradientUnits="userSpaceOnUse" xlink:href="#linearGradient2867-449-88-871-390-598-476-591-434-148-57-177-8-3-3-6-4-8-8-8"/><linearGradient id="linearGradient3007" x1="24" x2="24" y1="5" y2="43" gradientTransform="matrix(0.2972973,0,0,0.2972973,0.86486973,0.86486734)" gradientUnits="userSpaceOnUse" xlink:href="#linearGradient3924-4-8"/><linearGradient id="linearGradient3010" x1="223.217" x2="223.217" y1="38.035" y2="47.987" gradientTransform="translate(-215.0678,-35.000003)" gradientUnits="userSpaceOnUse" xlink:href="#linearGradient5803-0"/><radialGradient id="radialGradient3015" cx="6.73" cy="9.957" r="12.672" fx="6.2" fy="9.957" gradientTransform="matrix(0,3.1658508,-3.8866533,0,46.97684,-26.720326)" gradientUnits="userSpaceOnUse" xlink:href="#linearGradient4632-92-3-0-8-1-9"/><radialGradient id="radialGradient3893" cx="8.913" cy="10.162" r="12.672" fx="8.383" fy="10.162" gradientTransform="matrix(0.04387427,1.7755,-1.5782982,0.03900123,53.980706,-19.149218)" gradientUnits="userSpaceOnUse" xlink:href="#linearGradient4067-0-2"/><linearGradient id="linearGradient4067-0-2"><stop id="stop4069-2-9" offset="0" style="stop-color:#ffe452;stop-opacity:1"/><stop id="stop4071-8-9" offset="1" style="stop-color:#ffeb41;stop-opacity:0"/></linearGradient><linearGradient id="linearGradient3112" x1="24" x2="24" y1="5" y2="43" gradientTransform="matrix(0.62162164,0,0,0.62162164,24.413894,-5.3409289)" gradientUnits="userSpaceOnUse" xlink:href="#linearGradient3924-0"/><linearGradient id="linearGradient3924-0"><stop id="stop3926-6" offset="0" style="stop-color:#fff;stop-opacity:1"/><stop id="stop3928-3" offset=".063" style="stop-color:#fff;stop-opacity:.23529412"/><stop id="stop3930-2" offset=".951" style="stop-color:#fff;stop-opacity:.15686275"/><stop id="stop3932-62" offset="1" style="stop-color:#fff;stop-opacity:.39215687"/></linearGradient><radialGradient id="radialGradient3116" cx="6.73" cy="9.957" r="12.672" fx="6.2" fy="9.957" gradientTransform="matrix(0,6.0881746,-7.4743333,0,114.2883,-57.191874)" gradientUnits="userSpaceOnUse" xlink:href="#linearGradient4644-104-3-3-6-2-0"/><linearGradient id="linearGradient4644-104-3-3-6-2-0"><stop id="stop5237-6-5-1-7-8" offset="0" style="stop-color:#ff7a35;stop-opacity:1"/><stop id="stop5239-4-6-4-8-5" offset="1" style="stop-color:#f0431a;stop-opacity:1"/></linearGradient><radialGradient id="radialGradient2976" cx="4.993" cy="43.5" r="2.5" fx="4.993" fy="43.5" gradientTransform="matrix(2.003784,0,0,1.4,27.98813,-17.4)" gradientUnits="userSpaceOnUse" xlink:href="#linearGradient3688-166-749-6"/><linearGradient id="linearGradient3688-166-749-6"><stop id="stop2883-8" offset="0" style="stop-color:#181818;stop-opacity:1"/><stop id="stop2885-3" offset="1" style="stop-color:#181818;stop-opacity:0"/></linearGradient><radialGradient id="radialGradient2978" cx="4.993" cy="43.5" r="2.5" fx="4.993" fy="43.5" gradientTransform="matrix(2.003784,0,0,1.4,-20.01187,-104.4)" gradientUnits="userSpaceOnUse" xlink:href="#linearGradient3688-464-309-7"/><linearGradient id="linearGradient3688-464-309-7"><stop id="stop2889-0" offset="0" style="stop-color:#181818;stop-opacity:1"/><stop id="stop2891-66" offset="1" style="stop-color:#181818;stop-opacity:0"/></linearGradient><linearGradient id="linearGradient2980" x1="25.058" x2="25.058" y1="47.028" y2="39.999" gradientUnits="userSpaceOnUse" xlink:href="#linearGradient3702-501-757-3"/><linearGradient id="linearGradient3702-501-757-3"><stop id="stop2895-3" offset="0" style="stop-color:#181818;stop-opacity:0"/><stop id="stop2897-28" offset=".5" style="stop-color:#181818;stop-opacity:1"/><stop id="stop2899-8" offset="1" style="stop-color:#181818;stop-opacity:0"/></linearGradient><radialGradient id="radialGradient3879" cx="6.73" cy="9.957" r="12.672" fx="6.2" fy="9.957" gradientTransform="matrix(0,3.1658508,-3.8866533,0,46.97684,-26.720326)" gradientUnits="userSpaceOnUse" xlink:href="#linearGradient4067-0-2"/><radialGradient id="radialGradient3044" cx="32" cy="4.342" r="27.5" fx="32" fy="4.342" gradientTransform="matrix(1.8994991e-8,4.3639682,-4.363968,1.8994991e-8,82.947989,-187.94014)" gradientUnits="userSpaceOnUse" xlink:href="#linearGradient4632-92-3-0-8-1-9"/><linearGradient id="linearGradient4632-92-3-0-8-1-9"><stop id="stop4634-68-8-0-2-9-4" offset="0" style="stop-color:#fafafa;stop-opacity:1"/><stop id="stop4636-8-21-7-1-4-8" offset="1" style="stop-color:#e1e1e1;stop-opacity:1"/></linearGradient><radialGradient id="radialGradient4397" cx="32" cy="4.342" r="27.5" fx="32" fy="4.342" gradientTransform="matrix(1.8994991e-8,4.3639682,-4.363968,1.8994991e-8,-39.427011,-188.56514)" gradientUnits="userSpaceOnUse" xlink:href="#linearGradient4632-92-3-0-8-1-9"/></defs><metadata id="metadata7362"/><path style="color:#000;fill:url(#radialGradient3015);fill-opacity:1;fill-rule:nonzero;stroke:none;stroke-width:.99999994000000003;marker:none;visibility:visible;display:inline;overflow:visible;enable-background:accumulate" id="rect5505-21-2" d="M 2.5 2 C 2.2143514 2 2 2.2143514 2 2.5 L 2 13.5 C 2 13.785649 2.2143514 14 2.5 14 L 13.5 14 C 13.785649 14 14 13.785649 14 13.5 L 14 2.5 C 14 2.2143514 13.785649 2 13.5 2 L 2.5 2 z"/><rect style="opacity:.5;fill:none;stroke:url(#linearGradient3007);stroke-width:1;stroke-linecap:round;stroke-linejoin:round;stroke-miterlimit:4;stroke-opacity:1;stroke-dasharray:none;stroke-dashoffset:0" id="rect6741-0-3" width="11" height="11" x="2.5" y="2.5"/><rect style="opacity:.40000000000000002;color:#000;fill:none;stroke:#000;stroke-width:1;stroke-linecap:round;stroke-linejoin:round;stroke-miterlimit:4;stroke-opacity:1;stroke-dasharray:none;stroke-dashoffset:0;marker:none;visibility:visible;display:inline;overflow:visible;enable-background:accumulate" id="rect5505-21-2-8" width="13" height="13" x="1.5" y="1.5" rx="1" ry="1"/><path id="path8689" d="M 8,4.5 C 6.623507,4.5 5.5,5.628788 5.5,7 l 0,4 c 0,1.371212 1.123507,2.5 2.5,2.5 1.376493,0 2.5,-1.128788 2.5,-2.5 l 0,-4 C 10.5,5.628788 9.376493,4.5 8,4.5 z M 8,6 C 8.552,6 9,6.4 9,7 9,7.5 8.552,8 8,8 7.448,8 7,7.5 7,7 7,6.4 7.448,6 8,6 z m 0,3 c 0.552,0 1,0.4 1,1 l 0,1 C 9,11.5 8.552,12 8,12 7.448,12 7,11.5 7,11 L 7,10 C 7,9.4 7.448,9 8,9 z" style="opacity:.2;fill:#000;fill-opacity:1;stroke:#000;stroke-opacity:1"/><path style="opacity:.5;fill:#000;fill-opacity:1" id="path14" d="m 6,2 0,7 c 0,1.1 0.895,2 2,2 1.105,0 2,-0.9 2,-2 l 0,-7 z"/><path style="fill:#999" id="path16" d="M 8,2 7,2 7,3 8,3 z M 8,3 8,4 9,4 9,3 z M 8,4 7,4 7,5 8,5 z M 8,5 8,6 9,6 9,5 z M 8,6 7,6 7,7 8,7 z M 8,7 8,8 9,8 9,7 z M 8,8 7,8 7,9 8,9 z m 0,1 0,1 C 8.552,10 9,9.5 9,9 z"/><path style="fill:#ecf0f1" id="path18" d="M 7,3 7,4 8,4 8,3 z M 7,5 7,6 8,6 8,5 z M 7,7 7,8 8,8 8,7 z m 0,2 c 0,0.5 0.448,1 1,1 L 8,9 z"/><path style="fill:#ecf0f1;stroke:#000;stroke-opacity:.46296297" id="path22" d="M 8,3.5 C 6.623507,3.5 5.5,4.628788 5.5,6 l 0,4 c 0,1.371212 1.123507,2.5 2.5,2.5 1.376493,0 2.5,-1.128788 2.5,-2.5 l 0,-4 C 10.5,4.628788 9.376493,3.5 8,3.5 z M 8,5 C 8.552,5 9,5.4 9,6 9,6.5 8.552,7 8,7 7.448,7 7,6.5 7,6 7,5.4 7.448,5 8,5 z m 0,3 c 0.552,0 1,0.4 1,1 l 0,1 C 9,10.5 8.552,11 8,11 7.448,11 7,10.5 7,10 L 7,9 C 7,8.4 7.448,8 8,8 z"/></svg>