<svg xmlns="http://www.w3.org/2000/svg" xmlns:svg="http://www.w3.org/2000/svg" xmlns:xlink="http://www.w3.org/1999/xlink" id="svg4117" width="48" height="48" version="1.1"><defs id="defs4119"><linearGradient id="linearGradient3924"><stop id="stop3926" offset="0" style="stop-color:#fff;stop-opacity:1"/><stop id="stop3928" offset=".027" style="stop-color:#fff;stop-opacity:.23529412"/><stop id="stop3930" offset=".972" style="stop-color:#fff;stop-opacity:.15686275"/><stop id="stop3932" offset="1" style="stop-color:#fff;stop-opacity:.39215687"/></linearGradient><radialGradient id="radialGradient2873-966-168" cx="4.993" cy="43.5" r="2.5" fx="4.993" fy="43.5" gradientTransform="matrix(2.003784,0,0,1.4,27.98813,-17.4)" gradientUnits="userSpaceOnUse" xlink:href="#linearGradient3688-166-749"/><linearGradient id="linearGradient3688-166-749"><stop id="stop2883" offset="0" style="stop-color:#181818;stop-opacity:1"/><stop id="stop2885" offset="1" style="stop-color:#181818;stop-opacity:0"/></linearGradient><radialGradient id="radialGradient2875-742-326" cx="4.993" cy="43.5" r="2.5" fx="4.993" fy="43.5" gradientTransform="matrix(2.003784,0,0,1.4,-20.01187,-104.4)" gradientUnits="userSpaceOnUse" xlink:href="#linearGradient3688-464-309"/><linearGradient id="linearGradient3688-464-309"><stop id="stop2889" offset="0" style="stop-color:#181818;stop-opacity:1"/><stop id="stop2891" offset="1" style="stop-color:#181818;stop-opacity:0"/></linearGradient><linearGradient id="linearGradient2877-634-617" x1="25.058" x2="25.058" y1="47.028" y2="39.999" gradientUnits="userSpaceOnUse" xlink:href="#linearGradient3702-501-757"/><linearGradient id="linearGradient3702-501-757"><stop id="stop2895" offset="0" style="stop-color:#181818;stop-opacity:0"/><stop id="stop2897" offset=".5" style="stop-color:#181818;stop-opacity:1"/><stop id="stop2899" offset="1" style="stop-color:#181818;stop-opacity:0"/></linearGradient><filter id="filter3831" color-interpolation-filters="sRGB"><feGaussianBlur id="feGaussianBlur3833" stdDeviation=".637"/></filter><clipPath id="clipPath3823"><path id="path3825" d="M 108.8125,58 C 107.25437,58 106,59.254375 106,60.8125 l 0,24.375 C 106,86.745625 107.25437,88 108.8125,88 l 24.375,0 C 134.74562,88 136,86.745625 136,85.1875 l 0,-24.375 C 136,59.254375 134.74562,58 133.1875,58 l -24.375,0 z m 7.1875,4.5 10,0 0,8.75 5,0 -10,13.75 -10,-13.75 5,0 0,-8.75 z" style="fill:#fff;fill-opacity:1;stroke:none"/></clipPath><linearGradient id="linearGradient3812" x1="65.263" x2="65.263" y1="64.205" y2="50.069" gradientTransform="matrix(0.625,0,0,0.625,78.5,32.25)" gradientUnits="userSpaceOnUse" xlink:href="#linearGradient5010"/><filter id="filter3806" color-interpolation-filters="sRGB"><feGaussianBlur id="feGaussianBlur3808" stdDeviation="1.2"/></filter><linearGradient id="linearGradient3788" x1="70" x2="70" y1="54" y2="75.095" gradientTransform="translate(0,4)" gradientUnits="userSpaceOnUse" xlink:href="#linearGradient3737"/><linearGradient id="linearGradient3773" x1="56" x2="88" y1="72" y2="72" gradientTransform="matrix(0.9375,0,0,0.9375,-140.5,3.5)" gradientUnits="userSpaceOnUse" xlink:href="#linearGradient3778"/><linearGradient id="linearGradient3832" x1="65.263" x2="65.263" y1="64.205" y2="50.069" gradientTransform="matrix(0.625,0,0,0.625,28.5,31.25)" gradientUnits="userSpaceOnUse" xlink:href="#linearGradient3737"/><filter id="filter3174" color-interpolation-filters="sRGB"><feGaussianBlur id="feGaussianBlur3176" stdDeviation="1.71"/></filter><linearGradient id="linearGradient3737"><stop id="stop3739" offset="0" style="stop-color:#fff;stop-opacity:1"/><stop id="stop3741" offset="1" style="stop-color:#fff;stop-opacity:0"/></linearGradient><linearGradient id="ButtonShadow" x1="45.448" x2="45.448" y1="92.54" y2="7.017" gradientTransform="scale(1.0058652,0.994169)" gradientUnits="userSpaceOnUse"><stop id="stop3750" offset="0" style="stop-color:#000;stop-opacity:1"/><stop id="stop3752" offset="1" style="stop-color:#000;stop-opacity:.58823532"/></linearGradient><linearGradient id="linearGradient5010"><stop id="stop5012" offset="0" style="stop-color:#000;stop-opacity:1"/><stop id="stop5014" offset="1" style="stop-color:#000;stop-opacity:0"/></linearGradient><linearGradient id="linearGradient3778"><stop id="stop3780" offset="0" style="stop-color:#499119;stop-opacity:1"/><stop id="stop3782" offset="1" style="stop-color:#8fd625;stop-opacity:1"/></linearGradient><linearGradient id="linearGradient3084" x1="24" x2="24" y1="6.033" y2="42.033" gradientTransform="translate(2.4e-6,0.9674489)" gradientUnits="userSpaceOnUse" xlink:href="#linearGradient3924"/><linearGradient id="linearGradient909"><stop id="stop905" offset="0" style="stop-color:#fafafa;stop-opacity:1"/><stop id="stop907" offset="1" style="stop-color:#d4d4d4;stop-opacity:1"/></linearGradient><linearGradient id="linearGradient903" x1="14.33" x2="14.33" y1="32.022" y2="-.07" gradientTransform="matrix(1.4615385,0,0,1.4615385,0.61538514,-48.352052)" gradientUnits="userSpaceOnUse" xlink:href="#linearGradient909"/></defs><metadata id="metadata4122"/><g id="g2036" transform="matrix(1.1,0,0,0.4444449,-2.4000022,25.11107)" style="display:inline"><g id="g3712" transform="matrix(1.052632,0,0,1.285713,-1.263158,-13.42854)" style="opacity:.4"><rect id="rect2801" width="5" height="7" x="38" y="40" style="fill:url(#radialGradient2873-966-168);fill-opacity:1;stroke:none"/><rect id="rect3696" width="5" height="7" x="-10" y="-47" transform="scale(-1,-1)" style="fill:url(#radialGradient2875-742-326);fill-opacity:1;stroke:none"/><rect id="rect3700" width="28" height="7" x="10" y="40" style="fill:url(#linearGradient2877-634-617);fill-opacity:1;stroke:none"/></g></g><rect id="rect5505-6" width="38" height="38" x="5" y="-43.967" rx="1.5" ry="1.5" transform="scale(1,-1)" style="color:#000;display:inline;overflow:visible;visibility:visible;fill:url(#linearGradient903);fill-opacity:1;fill-rule:nonzero;stroke:none;stroke-width:1;marker:none;enable-background:accumulate"/><rect id="rect5505-21" width="39" height="39" x="4.5" y="5.467" rx="2" ry="2" style="color:#000;fill:none;fill-opacity:1;fill-rule:nonzero;stroke:#555761;stroke-width:1;stroke-linecap:round;stroke-linejoin:round;stroke-miterlimit:4;stroke-opacity:1;stroke-dasharray:none;stroke-dashoffset:0;marker:none;visibility:visible;display:inline;overflow:visible;enable-background:accumulate;font-variant-east_asian:normal;opacity:.5;vector-effect:none"/><rect id="rect6741-2" width="37" height="37" x="5.5" y="6.467" rx="1" ry="1" style="fill:none;stroke:url(#linearGradient3084);stroke-width:1;stroke-linecap:round;stroke-linejoin:round;stroke-miterlimit:4;stroke-opacity:1;stroke-dasharray:none;stroke-dashoffset:0"/><g id="layer2" transform="translate(-135.85714,-31.05041)" style="display:none"><path id="rect3745" d="M 11,7 48,5 85,7 c 3.324,0 6,2.676 6,6 l 0,73 c 0,3.324 -2.676,6 -6,6 L 11,92 C 7.676,92 5,89.324 5,86 L 5,13 C 5,9.676 7.676,7 11,7 z" style="opacity:.9;fill:url(#ButtonShadow);fill-opacity:1;fill-rule:nonzero;stroke:none;filter:url(#filter3174)"/></g><g id="layer4" transform="translate(-135.85714,-31.05041)" style="display:none"><rect id="rect3790" width="30" height="30" x="-86" y="56" rx="2.813" ry="2.813" transform="matrix(0,-1,1,0,0,4)" style="opacity:.6;fill:#000;fill-opacity:1;stroke:none;filter:url(#filter3806)"/><rect id="rect2993" width="30" height="30" x="-88" y="56" rx="2.813" ry="2.813" transform="matrix(0,-1,1,0,0,0)" style="fill:url(#linearGradient3773);fill-opacity:1;stroke:none"/><path id="rect3775" d="M 58.8125,58 C 57.254375,58 56,59.254375 56,60.8125 l 0,24.375 c 0,0.873066 0.410816,1.641163 1.03125,2.15625 C 57.02841,87.289908 57,87.242129 57,87.1875 l 0,-24.375 C 57,61.254375 58.17075,60 59.625,60 l 22.75,0 C 83.82925,60 85,61.254375 85,62.8125 l 0,24.375 c 0,0.05463 -0.02841,0.102408 -0.03125,0.15625 C 85.589184,86.828663 86,86.060566 86,85.1875 l 0,-24.375 C 86,59.254375 84.745625,58 83.1875,58 l -24.375,0 z" style="opacity:.5;fill:url(#linearGradient3788);fill-opacity:1;stroke:none"/><path id="path3810" d="m 116,63.5 0,8.75 -5,0 10,13.75 10,-13.75 -5,0 0,-8.75 -10,0 z" clip-path="url(#clipPath3823)" transform="translate(-50,0)" style="opacity:.6;fill:url(#linearGradient3812);fill-opacity:1;fill-rule:nonzero;stroke:none;display:inline;filter:url(#filter3831)"/><path id="path4278" d="m 66,62.5 0,8.75 -5,0 10,13.75 10,-13.75 -5,0 0,-8.75 -10,0 z" style="fill:url(#linearGradient3832);fill-opacity:1;fill-rule:nonzero;stroke:none;display:inline"/></g><g id="g4284" transform="translate(9.65e-4,-1.247e-4)"><path id="path8689" d="m 24.021561,23.500125 c -1.376493,0 -2.5,1.128788 -2.5,2.5 v 4 c 0,1.371212 1.123507,2.5 2.5,2.5 1.376493,0 2.5,-1.128788 2.5,-2.5 v -4 c 0,-1.371212 -1.123507,-2.5 -2.5,-2.5 z m 0,1.5 c 0.552,0 1,0.4 1,1 0,0.5 -0.448,1 -1,1 -0.552,0 -1,-0.5 -1,-1 0,-0.6 0.448,-1 1,-1 z m 0,3 c 0.552,0 1,0.4 1,1 v 1 c 0,0.5 -0.448,1 -1,1 -0.552,0 -1,-0.5 -1,-1 v -1 c 0,-0.6 0.448,-1 1,-1 z" style="opacity:.2;fill:#000;fill-opacity:1;stroke:#000;stroke-opacity:1"/><path style="opacity:.5;fill:#000;fill-opacity:1" id="path14" d="m 22.021561,14.000125 v 10 c 0,1.1 0.895,2 2,2 1.105,0 2,-0.9 2,-2 v -10 z"/><path style="fill:#999" id="path16" d="m 24.021561,14.000125 v 1 h 1 v -1 z m 0,1 h -1 v 1 h 1 z m 0,1 v 1 h 1 v -1 z m 0,1 h -1 v 1 h 1 z m 0,1 v 1 h 1 v -1 z m 0,1 h -1 v 1 h 1 z m 0,1 v 1 h 1 v -1 z m 0,1 h -1 v 1 h 1 z m 0,1 v 1 h 1 v -1 z m 0,1 h -1 v 1 h 1 z m 0,1 v 1 c 0.552,0 1,-0.5 1,-1 z"/><path id="path8678" d="M 22.021561,14.000125 V 5.5001247 h 4 v 8.5000003 z" style="opacity:.5;fill:#000;fill-opacity:1"/><path id="path8680" d="m 24.021561,6.0001247 v 1 h 1 v -1 z m 0,1 h -1 v 1 h 1 z m 0,1 v 1 h 1 v -1 z m 0,1 h -1 v 1.0000003 h 1 z m 0,1.0000003 v 1 h 1 v -1 z m 0,1 h -1 v 1 h 1 z m 0,1 v 1 h 1 v -1 z m 0,1 h -1 v 1 h 1 z" style="fill:#999"/><path id="path8682" d="m 23.021561,15.000125 v -1 h 1 v 1 z m 0,-2 v -1 h 1 v 1 z m 0,-2 v -1 h 1 v 1 z m 0,-2.0000003 v -1 h 1 v 1 z m 0,-2 v -1 h 1 v 1 z" style="fill:#ecf0f1;fill-opacity:1"/><path style="fill:#ecf0f1" id="path18" d="m 23.021561,14.000125 v 1 h 1 v -1 z m 0,2 v 1 h 1 v -1 z m 0,2 v 1 h 1 v -1 z m 0,2 v 1 h 1 v -1 z m 0,2 v 1 h 1 v -1 z m 0,2 c 0,0.5 0.448,1 1,1 v -1 z"/><path style="fill:#ecf0f1;stroke:#000;stroke-opacity:.46296297" id="path22" d="m 24.021561,22.500125 c -1.376493,0 -2.5,1.128788 -2.5,2.5 v 4 c 0,1.371212 1.123507,2.5 2.5,2.5 1.376493,0 2.5,-1.128788 2.5,-2.5 v -4 c 0,-1.371212 -1.123507,-2.5 -2.5,-2.5 z m 0,1.5 c 0.552,0 1,0.4 1,1 0,0.5 -0.448,1 -1,1 -0.552,0 -1,-0.5 -1,-1 0,-0.6 0.448,-1 1,-1 z m 0,3 c 0.552,0 1,0.4 1,1 v 1 c 0,0.5 -0.448,1 -1,1 -0.552,0 -1,-0.5 -1,-1 v -1 c 0,-0.6 0.448,-1 1,-1 z"/></g></svg>