<svg xmlns="http://www.w3.org/2000/svg" xmlns:svg="http://www.w3.org/2000/svg" xmlns:xlink="http://www.w3.org/1999/xlink" id="svg13986" width="64" height="64" version="1.1"><defs id="defs13988"><linearGradient id="linearGradient3924-2-2-5-8"><stop id="stop3926-9-4-9-6" offset="0" style="stop-color:#fff;stop-opacity:1"/><stop id="stop3928-9-8-6-5" offset=".063" style="stop-color:#fff;stop-opacity:.23529412"/><stop id="stop3930-3-5-1-7" offset=".951" style="stop-color:#fff;stop-opacity:.15686275"/><stop id="stop3932-8-0-4-8" offset="1" style="stop-color:#fff;stop-opacity:.39215687"/></linearGradient><radialGradient id="radialGradient3337-2-2" cx="4.993" cy="43.5" r="2.5" fx="4.993" fy="43.5" gradientTransform="matrix(2.003784,0,0,1.4,27.98813,-17.4)" gradientUnits="userSpaceOnUse" xlink:href="#linearGradient3688-166-749-4-0-3-8"/><linearGradient id="linearGradient3688-166-749-4-0-3-8"><stop id="stop2883-4-0-1-8" offset="0" style="stop-color:#181818;stop-opacity:1"/><stop id="stop2885-9-2-9-6" offset="1" style="stop-color:#181818;stop-opacity:0"/></linearGradient><radialGradient id="radialGradient3339-1-4" cx="4.993" cy="43.5" r="2.5" fx="4.993" fy="43.5" gradientTransform="matrix(2.003784,0,0,1.4,-20.01187,-104.4)" gradientUnits="userSpaceOnUse" xlink:href="#linearGradient3688-464-309-9-2-4-2"/><linearGradient id="linearGradient3688-464-309-9-2-4-2"><stop id="stop2889-7-9-6-9" offset="0" style="stop-color:#181818;stop-opacity:1"/><stop id="stop2891-6-6-1-7" offset="1" style="stop-color:#181818;stop-opacity:0"/></linearGradient><linearGradient id="linearGradient3702-501-757-8-4-1-1"><stop id="stop2895-8-9-9-1" offset="0" style="stop-color:#181818;stop-opacity:0"/><stop id="stop2897-7-8-7-7" offset=".5" style="stop-color:#181818;stop-opacity:1"/><stop id="stop2899-4-5-1-5" offset="1" style="stop-color:#181818;stop-opacity:0"/></linearGradient><linearGradient id="linearGradient13984" x1="25.058" x2="25.058" y1="47.028" y2="39.999" gradientUnits="userSpaceOnUse" xlink:href="#linearGradient3702-501-757-8-4-1-1"/><linearGradient id="linearGradient4632-92-3-0-8-1"><stop id="stop4634-68-8-0-2-9" offset="0" style="stop-color:#fafafa;stop-opacity:1"/><stop id="stop4636-8-21-7-1-4" offset="1" style="stop-color:#e1e1e1;stop-opacity:1"/></linearGradient><linearGradient id="linearGradient3647" x1="24" x2="24" y1="5" y2="43" gradientTransform="matrix(1.4324324,0,0,1.4362832,-2.378381,-2.4707781)" gradientUnits="userSpaceOnUse" xlink:href="#linearGradient3924-2-2-5-8"/><radialGradient id="radialGradient3651" cx="32" cy="4.342" r="27.5" fx="32" fy="4.342" gradientTransform="matrix(1.0056172e-8,2.3103361,-2.310336,1.0056172e-8,42.031285,-69.085963)" gradientUnits="userSpaceOnUse" xlink:href="#linearGradient4632-92-3-0-8-1"/></defs><metadata id="metadata13991"/><g style="opacity:.4" id="g3712-8-2-4-4" transform="matrix(1.5789502,0,0,0.7142857,-5.894751,27.928572)"><rect style="fill:url(#radialGradient3337-2-2);fill-opacity:1;stroke:none" id="rect2801-5-5-7-9" width="5" height="7" x="38" y="40"/><rect style="fill:url(#radialGradient3339-1-4);fill-opacity:1;stroke:none" id="rect3696-3-0-3-7" width="5" height="7" x="-10" y="-47" transform="scale(-1,-1)"/><rect style="fill:url(#linearGradient13984);fill-opacity:1;stroke:none" id="rect3700-5-6-8-4" width="28" height="7" x="10" y="40"/></g><rect style="color:#000;fill:url(#radialGradient3651);fill-opacity:1;fill-rule:nonzero;stroke:none;stroke-width:.99999994;marker:none;visibility:visible;display:inline;overflow:visible;enable-background:accumulate" id="rect5505-21-3-8-5-2" width="54" height="54" x="5" y="5" rx="2.5" ry="2.5"/><rect style="fill:none;stroke:url(#linearGradient3647);stroke-width:1;stroke-linecap:round;stroke-linejoin:round;stroke-miterlimit:4;stroke-opacity:1;stroke-dasharray:none;stroke-dashoffset:0" id="rect6741-5-0-2-3" width="53" height="53.142" x="5.5" y="5.429" rx="2" ry="2"/><rect style="opacity:.3;color:#000;fill:none;stroke:#000;stroke-width:.99999981999999998;stroke-linecap:butt;stroke-linejoin:miter;stroke-miterlimit:4;stroke-opacity:1;stroke-dasharray:none;stroke-dashoffset:0;marker:none;visibility:visible;display:inline;overflow:visible;enable-background:accumulate" id="rect5505-21-3-8-9-1-1" width="55" height="55" x="4.5" y="4.5" rx="3" ry="3"/><path id="path8689" d="m 32.025127,30.493028 c -1.376493,0 -2.5,1.128788 -2.5,2.5 l 0,4 c 0,1.371212 1.123507,2.5 2.5,2.5 1.376493,0 2.5,-1.128788 2.5,-2.5 l 0,-4 c 0,-1.371212 -1.123507,-2.5 -2.5,-2.5 z m 0,1.5 c 0.552,0 1,0.4 1,1 0,0.5 -0.448,1 -1,1 -0.552,0 -1,-0.5 -1,-1 0,-0.6 0.448,-1 1,-1 z m 0,3 c 0.552,0 1,0.4 1,1 l 0,1 c 0,0.5 -0.448,1 -1,1 -0.552,0 -1,-0.5 -1,-1 l 0,-1 c 0,-0.6 0.448,-1 1,-1 z" style="opacity:.2;fill:#000;fill-opacity:1;stroke:#000;stroke-opacity:1"/><path style="opacity:.5;fill:#000;fill-opacity:1" id="path14" d="m 30.025127,20.993028 v 10 c 0,1.1 0.895,2 2,2 1.105,0 2,-0.9 2,-2 v -10 h -4 z"/><path style="fill:#999" id="path16" d="m 32.025127,20.993028 v 1 h 1 v -1 h -1 z m 0,1 h -1 v 1 h 1 v -1 z m 0,1 v 1 h 1 v -1 h -1 z m 0,1 h -1 v 1 h 1 v -1 z m 0,1 v 1 h 1 v -1 h -1 z m 0,1 h -1 v 1 h 1 v -1 z m 0,1 v 1 h 1 v -1 h -1 z m 0,1 h -1 v 1 h 1 v -1 z m 0,1 v 1 h 1 v -1 h -1 z m 0,1 h -1 v 1 h 1 v -1 z m 0,1 v 1 c 0.552,0 1,-0.5 1,-1 h -1 z"/><path style="opacity:.5;fill:#000;fill-opacity:1" id="path8678" d="m 30.031251,4.4999981 0,7.9999999 0,0.5 0,8 4,0 0,-8 0,-0.5 0,-7.9999999 -4,0 z"/><path id="path8680" d="m 32.025127,12.993028 0,1 1,0 0,-1 z m 0,1 -1,0 0,1 1,0 z m 0,1 0,1 1,0 0,-1 z m 0,1 -1,0 0,1 1,0 z m 0,1 0,1 1,0 0,-1 z m 0,1 -1,0 0,1 1,0 z m 0,1 0,1 1,0 0,-1 z m 0,1 -1,0 0,1 1,0 z" style="fill:#999"/><path id="path8682" d="m 31.025127,21.993028 0,-1 1,0 0,1 z m 0,-2 0,-1 1,0 0,1 z m 0,-2 0,-1 1,0 0,1 z m 0,-2 0,-1 1,0 0,1 z m 0,-2 0,-1 1,0 0,1 z" style="fill:#ecf0f1;fill-opacity:1"/><path style="fill:#ecf0f1" id="path18" d="m 31.025127,20.993028 v 1 h 1 v -1 h -1 z m 0,2 v 1 h 1 v -1 h -1 z m 0,2 v 1 h 1 v -1 h -1 z m 0,2 v 1 h 1 v -1 h -1 z m 0,2 v 1 h 1 v -1 h -1 z m 0,2 c 0,0.5 0.448,1 1,1 v -1 h -1 z"/><path style="fill:#ecf0f1;stroke:#000;stroke-opacity:.46296297" id="path22" d="m 32.025127,29.493028 c -1.376493,0 -2.5,1.128788 -2.5,2.5 l 0,4 c 0,1.371212 1.123507,2.5 2.5,2.5 1.376493,0 2.5,-1.128788 2.5,-2.5 l 0,-4 c 0,-1.371212 -1.123507,-2.5 -2.5,-2.5 z m 0,1.5 c 0.552,0 1,0.4 1,1 0,0.5 -0.448,1 -1,1 -0.552,0 -1,-0.5 -1,-1 0,-0.6 0.448,-1 1,-1 z m 0,3 c 0.552,0 1,0.4 1,1 l 0,1 c 0,0.5 -0.448,1 -1,1 -0.552,0 -1,-0.5 -1,-1 l 0,-1 c 0,-0.6 0.448,-1 1,-1 z"/><path style="fill:#999" id="path3272" d="m 32.025127,4.9930281 0,1 1,0 0,-1 z m 0,1 -1,0 0,1 1,0 z m 0,1 0,1 1,0 0,-1 z m 0,1 -1,0 0,1 1,0 z m 0,1 0,1 1,0 0,-1 z m 0,1 -1,0 0,0.9999999 1,0 z m 0,0.9999999 0,1 1,0 0,-1 z m 0,1 -1,0 0,1 1,0 z"/><path style="fill:#ecf0f1;fill-opacity:1" id="path3274" d="m 31.025127,13.993028 0,-1 1,0 0,1 z m 0,-2 0,-1 1,0 0,1 z m 0,-1.9999999 0,-1 1,0 0,1 z m 0,-2 0,-1 1,0 0,1 z m 0,-2 0,-1 1,0 0,1 z"/></svg>